HIERARCHY
ROOT Hips
{
  OFFSET 5.80788e-005 67.184 3.4734
  CHANNELS 6 Xposition Yposition Zposition Zrotation Xrotation Yrotation
  JOINT Chest
  {
    OFFSET 0 8.7983 -4.7612
    CHANNELS 3 Zrotation Xrotation Yrotation
    JOINT Chest2
    {
      OFFSET 0 8.0291 0.4195
      CHANNELS 3 Zrotation Xrotation Yrotation
      JOINT Chest3
      {
        OFFSET 0 9.9351 -2.2114
        CHANNELS 3 Zrotation Xrotation Yrotation
        JOINT Neck
        {
          OFFSET 0 22.3885 -0.4656
          CHANNELS 3 Zrotation Xrotation Yrotation
          JOINT Head
          {
            OFFSET -0.0001 12.643 3.4389
            CHANNELS 3 Zrotation Xrotation Yrotation
            End Site
            {
              OFFSET 0.0001 17.6655 0.5274
            }
          }
        }
        JOINT LeftCollar
        {
          OFFSET 2.2603 21.606 7.4023
          CHANNELS 3 Zrotation Xrotation Yrotation
          JOINT LeftShoulder
          {
            OFFSET 13.5163 -1.1332 -5.0146
            CHANNELS 3 Zrotation Xrotation Yrotation
            JOINT LeftElbow
            {
              OFFSET -0.0995 -28.05 -0.2431
              CHANNELS 3 Zrotation Xrotation Yrotation
              JOINT LeftWrist
              {
                OFFSET 0.0679 -23.3996 -0.1402
                CHANNELS 3 Zrotation Xrotation Yrotation
                JOINT LeftFinger1
                {
                  OFFSET 0.7932 -9.069 2.5189
                  CHANNELS 3 Zrotation Xrotation Yrotation
                  JOINT LeftFinger11
                  {
                    OFFSET -0.8272 -3.3923 0.5977
                    CHANNELS 3 Zrotation Xrotation Yrotation
                    JOINT LeftFinger12
                    {
                      OFFSET -0.5649 -2.3158 0.4082
                      CHANNELS 3 Zrotation Xrotation Yrotation
                      End Site
                      {
                        OFFSET -0.4919 -1.6479 0.2673
                      }
                    }
                  }
                }
                JOINT LeftFinger2
                {
                  OFFSET 0.9159 -9.2044 0.2193
                  CHANNELS 3 Zrotation Xrotation Yrotation
                  JOINT LeftFinger21
                  {
                    OFFSET 0.0117 -4.1944 -0.0248
                    CHANNELS 3 Zrotation Xrotation Yrotation
                    JOINT LeftFinger22
                    {
                      OFFSET 0.0071 -2.3249 -0.0142
                      CHANNELS 3 Zrotation Xrotation Yrotation
                      End Site
                      {
                        OFFSET -0.1475 -2.0882 0.0028
                      }
                    }
                  }
                }
                JOINT LeftFinger3
                {
                  OFFSET 0.6113 -8.7231 -2.0637
                  CHANNELS 3 Zrotation Xrotation Yrotation
                  JOINT LeftFinger31
                  {
                    OFFSET -0.1927 -3.8059 -0.2383
                    CHANNELS 3 Zrotation Xrotation Yrotation
                    JOINT LeftFinger32
                    {
                      OFFSET -0.1091 -2.1688 -0.1362
                      CHANNELS 3 Zrotation Xrotation Yrotation
                      End Site
                      {
                        OFFSET -0.2358 -1.9176 -0.0906
                      }
                    }
                  }
                }
                JOINT LeftFinger4
                {
                  OFFSET -0.6151 -8.0947 -3.5641
                  CHANNELS 3 Zrotation Xrotation Yrotation
                  JOINT LeftFinger41
                  {
                    OFFSET -0.4882 -2.341 -0.6462
                    CHANNELS 3 Zrotation Xrotation Yrotation
                    JOINT LeftFinger42
                    {
                      OFFSET -0.3575 -1.7167 -0.4742
                      CHANNELS 3 Zrotation Xrotation Yrotation
                      End Site
                      {
                        OFFSET -0.4187 -1.5237 -0.3496
                      }
                    }
                  }
                }
                JOINT LeftFinger0
                {
                  OFFSET -1.42 -1.8761 1.4223
                  CHANNELS 3 Zrotation Xrotation Yrotation
                  JOINT LeftFinger01
                  {
                    OFFSET -1.1471 -3.4929 2.6334
                    CHANNELS 3 Zrotation Xrotation Yrotation
                    JOINT LeftFinger02
                    {
                      OFFSET -0.823 -2.3 1.6571
                      CHANNELS 3 Zrotation Xrotation Yrotation
                      End Site
                      {
                        OFFSET -0.5822 -1.6914 1.1582
                      }
                    }
                  }
                }
              }
            }
          }
        }
        JOINT RightCollar
        {
          OFFSET -2.2603 21.606 7.4023
          CHANNELS 3 Zrotation Xrotation Yrotation
          JOINT RightShoulder
          {
            OFFSET -13.5187 -1.1334 -5.0155
            CHANNELS 3 Zrotation Xrotation Yrotation
            JOINT RightElbow
            {
              OFFSET 0.0994 -28.0499 -0.2431
              CHANNELS 3 Zrotation Xrotation Yrotation
              JOINT RightWrist
              {
                OFFSET -0.0679 -23.3996 -0.1402
                CHANNELS 3 Zrotation Xrotation Yrotation
                JOINT RightFinger1
                {
                  OFFSET -0.7932 -9.0691 2.5189
                  CHANNELS 3 Zrotation Xrotation Yrotation
                  JOINT RightFinger11
                  {
                    OFFSET 0.8272 -3.3923 0.5977
                    CHANNELS 3 Zrotation Xrotation Yrotation
                    JOINT RightFinger12
                    {
                      OFFSET 0.565 -2.3158 0.4082
                      CHANNELS 3 Zrotation Xrotation Yrotation
                      End Site
                      {
                        OFFSET 0.4919 -1.6479 0.2673
                      }
                    }
                  }
                }
                JOINT RightFinger2
                {
                  OFFSET -0.916 -9.2044 0.2193
                  CHANNELS 3 Zrotation Xrotation Yrotation
                  JOINT RightFinger21
                  {
                    OFFSET -0.0117 -4.1944 -0.0248
                    CHANNELS 3 Zrotation Xrotation Yrotation
                    JOINT RightFinger22
                    {
                      OFFSET -0.0071 -2.3249 -0.0142
                      CHANNELS 3 Zrotation Xrotation Yrotation
                      End Site
                      {
                        OFFSET 0.1475 -2.0882 0.0028
                      }
                    }
                  }
                }
                JOINT RightFinger3
                {
                  OFFSET -0.6113 -8.7231 -2.0637
                  CHANNELS 3 Zrotation Xrotation Yrotation
                  JOINT RightFinger31
                  {
                    OFFSET 0.1927 -3.8059 -0.2383
                    CHANNELS 3 Zrotation Xrotation Yrotation
                    JOINT RightFinger32
                    {
                      OFFSET 0.1091 -2.1688 -0.1362
                      CHANNELS 3 Zrotation Xrotation Yrotation
                      End Site
                      {
                        OFFSET 0.2358 -1.9176 -0.0906
                      }
                    }
                  }
                }
                JOINT RightFinger4
                {
                  OFFSET 0.6151 -8.0947 -3.564
                  CHANNELS 3 Zrotation Xrotation Yrotation
                  JOINT RightFinger41
                  {
                    OFFSET 0.4882 -2.341 -0.6462
                    CHANNELS 3 Zrotation Xrotation Yrotation
                    JOINT RightFinger42
                    {
                      OFFSET 0.3574 -1.7166 -0.4742
                      CHANNELS 3 Zrotation Xrotation Yrotation
                      End Site
                      {
                        OFFSET 0.4187 -1.5237 -0.3496
                      }
                    }
                  }
                }
                JOINT RightFinger0
                {
                  OFFSET 1.4199 -1.8761 1.4221
                  CHANNELS 3 Zrotation Xrotation Yrotation
                  JOINT RightFinger01
                  {
                    OFFSET 1.1472 -3.4929 2.6336
                    CHANNELS 3 Zrotation Xrotation Yrotation
                    JOINT RightFinger02
                    {
                      OFFSET 0.8229 -2.3 1.6571
                      CHANNELS 3 Zrotation Xrotation Yrotation
                      End Site
                      {
                        OFFSET 0.5822 -1.6914 1.1582
                      }
                    }
                  }
                }
              }
            }
          }
        }
      }
    }
  }
  JOINT RightHip
  {
    OFFSET -9.412 3.9771 -0.7758
    CHANNELS 3 Zrotation Xrotation Yrotation
    JOINT RightKnee
    {
      OFFSET -0.7531 -40.938 0
      CHANNELS 3 Zrotation Xrotation Yrotation
      JOINT RightAnkle
      {
        OFFSET 0 -40.1986 0
        CHANNELS 3 Zrotation Xrotation Yrotation
        JOINT RightToe
        {
          OFFSET 0 -4.4182 9.239
          CHANNELS 3 Zrotation Xrotation Yrotation
          End Site
          {
            OFFSET 0 0 6.1981
          }
        }
      }
    }
  }
  JOINT LeftHip
  {
    OFFSET 9.4119 3.9773 -0.7758
    CHANNELS 3 Zrotation Xrotation Yrotation
    JOINT LeftKnee
    {
      OFFSET 0.7532 -40.9383 0
      CHANNELS 3 Zrotation Xrotation Yrotation
      JOINT LeftAnkle
      {
        OFFSET 0 -40.1986 0
        CHANNELS 3 Zrotation Xrotation Yrotation
        JOINT LeftToe
        {
          OFFSET 0 -4.4182 9.239
          CHANNELS 3 Zrotation Xrotation Yrotation
          End Site
          {
            OFFSET 0 0 6.1981
          }
        }
      }
    }
  }
}
MOTION
Frames:	4
Frame Time:	0.0333333
5.80788e-005 67.184 3.4734 0 0 -0 0 0 -0 0 0 -0 0 0 -0 0 0 -0 0 0 -0 0 0 -12.5014 88.1196 14.2451 10.6914 -0.00160068 -0.00239207 0.000740045 -8.4365e-005 7.00714e-005 -9.52055e-007 9.93923e-017 -1.98785e-016 -1.59028e-015 9.93923e-017 -5.96354e-016 -1.59028e-015 -9.93923e-017 -5.96354e-016 -1.59028e-015 9.93923e-017 -1.98785e-016 -1.59028e-015 -0.0128176 0.00232552 8.52707e-005 9.93923e-017 5.96354e-016 -0 9.93923e-017 -1.98785e-016 -1.59028e-015 -0.0160551 0.00299681 0.000857156 -2.48481e-016 0 3.18055e-015 9.93923e-017 -1.98785e-016 -1.59028e-015 -0.0125865 0.0031206 0.00282719 0 1.98785e-016 -0 9.93923e-017 -1.98785e-016 -1.59028e-015 9.93923e-017 -5.96354e-016 -1.59028e-015 -9.93923e-017 -5.96354e-016 -1.59028e-015 -0.865644 0.16582 7.03859 -88.0329 10.2057 -10.5567 0.0015593 -0.00248883 -0.000788628 7.87605e-005 4.10553e-005 1.24965e-005 -3.97569e-016 -7.95139e-016 3.18055e-015 -1.98785e-016 -3.97569e-016 3.18055e-015 -1.98785e-016 0 3.18055e-015 -3.97569e-016 -7.95139e-016 3.18055e-015 0.0129473 0.00231697 -8.70038e-005 9.93923e-017 -7.95139e-016 1.59028e-015 -3.97569e-016 -7.95139e-016 3.18055e-015 0.0163314 0.00303369 -0.000872333 3.97569e-016 7.95139e-016 -3.18055e-015 -3.97569e-016 -7.95139e-016 3.18055e-015 0.0145763 0.00367772 -0.00326275 9.93923e-017 -3.97569e-016 -0 -3.97569e-016 -7.95139e-016 3.18055e-015 -1.98785e-016 -3.97569e-016 3.18055e-015 -1.98785e-016 0 3.18055e-015 3.42485 1.36937 -0.0640303 0.000136572 0.69354 0.00145564 -3.42573 -2.06297 -0.0607933 -3.19502e-024 0 -1.48106e-024 -3.42498 1.36123 0.0639712 -6.769e-005 0.712612 -0.0012277 3.42582 -2.07388 0.0612819 2.55305e-023 0 -2.31416e-026 
4.03362 30.7981 0.596395 8.76808 8.18389 132.705 -0.458372 15.5265 0.0942515 -1.00337 31.0518 0.34357 -1.00336 31.0517 0.343553 3.81976e-005 -14.0533 1.53481e-006 2.01385e-006 -1.44515 -1.25392e-005 -4.39314 -16.6128 -7.11255 12.223 -32.8508 -43.667 33.9774 -20.5289 15.9975 16.9961 -2.58355 -14.6688 8.57886e-006 -4.06014e-006 1.24254e-005 -2.22639e-014 1.27222e-014 -3.18055e-015 -8.57886e-006 4.06014e-006 -1.24254e-005 8.57886e-006 -4.06014e-006 1.24254e-005 -0.0128252 0.00232558 8.26694e-005 -1.32417e-031 4.77083e-015 1.59028e-015 8.57886e-006 -4.06014e-006 1.24254e-005 -0.0160663 0.00300194 0.000855987 -3.18055e-015 -1.59028e-015 3.18055e-015 8.57886e-006 -4.06014e-006 1.24254e-005 -0.0125251 0.00310595 0.00280802 6.36111e-015 3.18055e-015 -3.18055e-015 8.57886e-006 -4.06014e-006 1.24254e-005 -2.22639e-014 1.27222e-014 -3.18055e-015 -8.57886e-006 4.06014e-006 -1.24254e-005 2.99085 -15.6838 0.597112 -11.508 -34.377 47.8012 -34.6589 -20.8899 -17.542 -13.9384 -0.00264568 12.2811 -3.97569e-016 0 3.18055e-015 -1.36261e-007 -1.69804e-006 -8.3497e-007 -2.78299e-015 0 -1.59028e-015 -3.97569e-016 0 3.18055e-015 0.0129566 0.00231865 -8.31013e-005 1.78906e-015 1.59028e-015 3.18055e-015 -3.97569e-016 0 3.18055e-015 0.0163366 0.00303953 -0.000874579 -1.90833e-014 1.59028e-015 4.77083e-015 -3.97569e-016 0 3.18055e-015 0.0146467 0.00369968 -0.00327627 2.18663e-015 0 3.18055e-015 -3.97569e-016 0 3.18055e-015 -1.36261e-007 -1.69804e-006 -8.3497e-007 -2.78299e-015 0 -1.59028e-015 -25.325 -8.11118 2.38847 -105.975 86.4777 106.285 11.8558 28.7652 5.81498 -4.79488e-006 -9.99634e-007 8.23447e-007 26.6174 -8.54935 -3.31306 85.787 86.7252 -86.1246 -11.6532 30.6248 -7.01297 -6.03178e-006 -4.49573e-006 -6.64052e-006 
-0.0724722 14.4929 0.751703 -3.97613 16.308 -166.097 -0.670994 22.3207 0.06461 -1.57784 44.6387 0.506731 -1.57782 44.6384 0.506722 4.22201e-005 -20.4898 5.4989e-006 1.69763e-006 -2.28334 -5.02335e-008 -5.23788 -23.8257 -4.37144 -17.0726 -57.5428 -68.1705 49.7056 -28.6559 23.8783 24.8566 -3.90761 -20.8279 0 0 -3.97569e-015 -1.66982e-006 -9.21511e-007 1.50885e-006 2.35439e-006 5.78228e-006 5.43965e-006 0 0 -3.97569e-015 -0.0128142 0.00232965 8.52559e-005 4.77083e-015 -6.36111e-015 -3.97569e-015 0 0 -3.97569e-015 -0.016083 0.00298996 0.000862747 -3.18055e-015 3.18055e-015 8.74653e-015 0 0 -3.97569e-015 -0.0125948 0.00311826 0.00283268 -1.59028e-015 0 3.18055e-015 0 0 -3.97569e-015 -1.66982e-006 -9.21511e-007 1.50885e-006 2.35439e-006 5.78228e-006 5.43965e-006 3.48223 -22.5282 -2.62535 20.3005 -56.9426 73.2351 -50.8535 -29.0423 -26.0167 -20.3278 -0.218565 17.5232 -3.18055e-015 3.18055e-015 1.59028e-015 4.6249e-006 3.6908e-006 8.56628e-006 -6.36111e-015 -3.18055e-015 -4.77083e-015 -3.18055e-015 3.18055e-015 1.59028e-015 0.0129331 0.00232712 -9.17222e-005 6.36111e-015 -3.18055e-015 -0 -3.18055e-015 3.18055e-015 1.59028e-015 0.0163321 0.00304284 -0.000873432 6.36111e-015 3.18055e-015 -3.18055e-015 -3.18055e-015 3.18055e-015 1.59028e-015 0.0145383 0.00367476 -0.00324765 6.36111e-015 0 -3.18055e-015 -3.18055e-015 3.18055e-015 1.59028e-015 4.6249e-006 3.6908e-006 8.56628e-006 -6.36111e-015 -3.18055e-015 -4.77083e-015 -37.8966 -13.2093 2.17356 -171.829 49.3461 169.153 15.7311 44.0204 10.5506 1.10481e-006 -5.20437e-007 1.21923e-006 39.6373 -13.8807 -3.75767 171.609 51.1898 -169.135 -14.3102 46.7556 -13.1951 -2.1581e-006 -6.57197e-006 -5.18449e-006 
0.972967 17.8751 0.555546 -5.21482e-015 14.4023 180 -0.620346 20.3812 0.0648683 -1.4179 40.7601 0.430367 -1.41789 40.7598 0.430358 5.6985e-005 -19.311 4.21117e-006 1.85074e-007 -2.51468 1.58592e-007 -5.05499 -21.9111 -5.15937 -10.6809 -52.3205 -62.7649 44.8961 -26.0234 21.4218 23.4655 -4.12402 -19.1107 5.24877e-006 -1.83862e-006 -1.96702e-006 -3.30526e-006 2.38566e-008 5.68414e-007 -2.14848e-006 2.58992e-006 2.21356e-006 5.24877e-006 -1.83862e-006 -1.96702e-006 -0.012866 0.00233115 8.43798e-005 3.21053e-006 5.19669e-006 -6.26354e-006 5.24877e-006 -1.83862e-006 -1.96702e-006 -0.0160845 0.00299878 0.000863858 6.6116e-006 1.43591e-006 -1.13654e-006 5.24877e-006 -1.83862e-006 -1.96702e-006 -0.0125508 0.00311641 0.00282174 5.24981e-006 5.90395e-007 -1.96694e-006 5.24877e-006 -1.83862e-006 -1.96702e-006 -3.30526e-006 2.38566e-008 5.68414e-007 -2.14848e-006 2.58992e-006 2.21356e-006 3.40674 -20.7245 -1.70065 13.4082 -52.1419 67.6711 -45.9024 -26.4214 -23.3488 -19.2055 -0.742686 16.0842 -4.7413e-022 2.84706e-006 9.54166e-015 -4.15117e-006 -4.6085e-007 2.99674e-006 -2.11306e-006 4.00348e-006 1.10317e-006 -4.7413e-022 2.84706e-006 9.54166e-015 0.0129125 0.00230726 -8.11159e-005 7.72639e-006 4.10716e-006 5.11432e-006 -4.7413e-022 2.84706e-006 9.54166e-015 0.0163636 0.00302738 -0.000868789 -9.54166e-015 3.18055e-015 -6.36111e-015 -4.7413e-022 2.84706e-006 9.54166e-015 0.0145436 0.00367315 -0.00324704 -2.86363e-006 -3.16135e-006 3.84892e-006 -4.7413e-022 2.84706e-006 9.54166e-015 -4.15117e-006 -4.6085e-007 2.99674e-006 -2.11306e-006 4.00348e-006 1.10317e-006 -35.4242 -13.3068 2.48562 -171.347 57.6988 169.383 14.8356 40.6579 10.0703 -4.31218e-006 -1.26296e-006 -1.74668e-006 37.0559 -13.889 -3.89377 171.13 59.4013 -169.287 -13.8277 43.1873 -12.283 -7.05267e-006 -4.98175e-006 5.69539e-006 
